<svg xmlns="http://www.w3.org/2000/svg" viewBox="0 0 24 24" width="24" height="24">
  <defs>
    <linearGradient id="secGrad" x1="0%" y1="0%" x2="100%" y2="100%">
      <stop offset="0%" stop-color="#059669" />
      <stop offset="100%" stop-color="#34d399" />
    </linearGradient>
    <filter id="shadow" x="-10%" y="-10%" width="120%" height="120%">
      <feDropShadow dx="0" dy="1.5" stdDeviation="1" flood-opacity="0.15" />
    </filter>
  </defs>
  <path d="M4 3a2 2 0 0 0-2 2v14a2 2 0 0 0 2 2h15a3 3 0 0 0 3-3V6a3 3 0 0 0-3-3H4zm0 2h1a1 1 0 0 1 1 1v12a1 1 0 0 1-1 1H4V5zm4 0h11a1 1 0 0 1 1 1v12a1 1 0 0 1-1 1H8V5z" fill="url(#secGrad)" filter="url(#shadow)"/>
  <rect x="10" y="8" width="6" height="1.5" rx="0.75" fill="#ffffff" opacity="0.9"/>
  <rect x="10" y="11" width="6" height="1.5" rx="0.75" fill="#ffffff" opacity="0.9"/>
  <rect x="10" y="14" width="4" height="1.5" rx="0.75" fill="#ffffff" opacity="0.9"/>
</svg>
