<svg xmlns="http://www.w3.org/2000/svg" viewBox="0 0 24 24" width="24" height="24">
  <defs>
    <linearGradient id="projPageGrad" x1="0%" y1="0%" x2="100%" y2="100%">
      <stop offset="0%" stop-color="#0d9488" />
      <stop offset="100%" stop-color="#2dd4bf" />
    </linearGradient>
    <filter id="shadow" x="-10%" y="-10%" width="120%" height="120%">
      <feDropShadow dx="0" dy="1.5" stdDeviation="1" flood-opacity="0.15" />
    </filter>
  </defs>
  <path d="M6 2a2 2 0 0 0-2 2v16a2 2 0 0 0 2 2h12a2 2 0 0 0 2-2V8l-6-6H6zm0 2h7v5h5v11H6V4zm8 0.5L17.5 8H14V4.5z" fill="url(#projPageGrad)" filter="url(#shadow)"/>
  <!-- Project Checklist symbol -->
  <rect x="9" y="11.5" width="2" height="2" rx="0.5" fill="none" stroke="#ffffff" stroke-width="1.1"/>
  <line x1="13" y1="12.5" x2="16" y2="12.5" stroke="#ffffff" stroke-width="1.2" stroke-linecap="round"/>
  <rect x="9" y="14.5" width="2" height="2" rx="0.5" fill="none" stroke="#ffffff" stroke-width="1.1"/>
  <line x1="13" y1="15.5" x2="16" y2="15.5" stroke="#ffffff" stroke-width="1.2" stroke-linecap="round"/>
</svg>
