<svg xmlns="http://www.w3.org/2000/svg" viewBox="0 0 24 24" width="24" height="24">
  <defs>
    <linearGradient id="meetGrad" x1="0%" y1="0%" x2="100%" y2="100%">
      <stop offset="0%" stop-color="#0284c7" />
      <stop offset="100%" stop-color="#38bdf8" />
    </linearGradient>
    <filter id="shadow" x="-10%" y="-10%" width="120%" height="120%">
      <feDropShadow dx="0" dy="1.5" stdDeviation="1" flood-opacity="0.15" />
    </filter>
  </defs>
  <path d="M4 3a2 2 0 0 0-2 2v14a2 2 0 0 0 2 2h15a3 3 0 0 0 3-3V6a3 3 0 0 0-3-3H4zm0 2h1a1 1 0 0 1 1 1v12a1 1 0 0 1-1 1H4V5zm4 0h11a1 1 0 0 1 1 1v12a1 1 0 0 1-1 1H8V5z" fill="url(#meetGrad)" filter="url(#shadow)"/>
  <!-- Calendar outline icon on binder cover -->
  <rect x="11" y="8" width="7" height="7" rx="1" fill="none" stroke="#ffffff" stroke-width="1.1"/>
  <line x1="11" y1="10.5" x2="18" y2="10.5" stroke="#ffffff" stroke-width="1.1"/>
  <rect x="12.5" y="6.5" width="0.8" height="2" rx="0.4" fill="#ffffff"/>
  <rect x="15.5" y="6.5" width="0.8" height="2" rx="0.4" fill="#ffffff"/>
  <circle cx="13" cy="12.2" r="0.5" fill="#ffffff"/>
  <circle cx="16" cy="12.2" r="0.5" fill="#ffffff"/>
  <circle cx="13" cy="14" r="0.5" fill="#ffffff"/>
  <circle cx="16" cy="14" r="0.5" fill="#ffffff"/>
</svg>
